<svg version="1.1" id="Capa_1" xmlns="http://www.w3.org/2000/svg" xmlns:xlink="http://www.w3.org/1999/xlink" x="0px" y="0px" viewBox="0 0 1200 1200" enable-background="new 0 0 1200 1200" xml:space="preserve">
<g>
	<path fill="#001A5A" d="M470.154,136.371c1.614,0.299,3.499,0.547,4.958,0.001c4.297-1.608,9.108-2.831,12.478-5.674
		c4.37-3.688,9.239-5.729,14.395-7.381c5.229-1.676,10.221-3.784,15.042-6.381c13.254-7.139,26.525-14.246,39.8-21.346
		c4.162-2.226,4.178-2.197,7.968,2.206c2.915,3.386,4.891,3.868,8.608,2.477c4.539-1.699,7.595-5.165,10.671-8.616
		c3.628-4.069,6.989-8.428,12.652-10.731c1.102,1.019,2.585,1.943,3.463,3.269c10.49,15.839,24.634,28.559,36.716,43.041
		c6.556,7.858,15.665,13.49,19.952,23.414c0.905,2.095,3.308,3.738,5.352,5.089c1.738,1.148,3.601,1.913,4.777,3.842
		c5.872,9.639,12.932,18.475,19.22,27.806c13.674,20.289,30.527,37.805,46.747,55.9c1.947,2.173,4.262,4.076,5.905,6.45
		c9.851,14.229,21.183,27.079,34.647,37.996c1.679,1.362,3.084,2.93,3.541,5.055c1.216,5.652,4.669,9.72,8.903,13.376
		c2.543,2.196,4.607,4.817,6.205,7.865c2.951,5.629,7.253,10.24,11.563,14.872c5.98,6.428,12.231,12.724,17.341,19.817
		c8.836,12.266,17.613,24.465,28.436,35.152c4.099,4.047,6.668,9.554,12.656,11.709c1.188,0.427,2.182,2.577,2.483,4.088
		c1.558,7.826,5.687,13.712,12.534,17.761c2.252,1.332,1.95,3.448,1.472,5.543c-0.498,2.19-1.385,3.545-4.14,3.591
		c-3.255,0.055-6.258,1.308-9.834,0.673c-11.046-1.96-22.174-4.284-33.379-0.183c-3.11,1.137-6.422,0.698-9.696-1.047
		c-7.867-4.197-16.362-2.851-24.454-1.047c-2.876,0.641-5.08,2.145-7.937,0.161c-2.173-1.508-4.928-1.798-7.258-0.728
		c-6.006,2.758-12.452-0.984-18.398,1.548c-10.803-1.829-21.428-2.195-31.52,3.252c-0.868,0.469-2.43-0.524-3.67-0.529
		c-2.043-0.009-3.058,1.391-2.823,3.226c0.45,3.525,1.993,6.806,5.662,7.615c9.84,2.166,19.792,3.901,29.436-0.888
		c1.619-0.804,3.028-1.054,4.746-0.509c7.762,2.461,15.335,2.105,23.397,0.33c7.173-1.58,14.897-0.851,22.376-0.793
		c8.937,0.069,17.969,2.917,26.722-1.485c1.257-0.632,3.277-0.123,4.829,0.29c2.943,0.786,5.781,1.067,8.578-0.365
		c2.455-1.257,4.839-0.812,7.296,0.06c4.68,1.663,8.629,0.987,12.801-2.307c3.88-3.065,8.458-0.507,9.118,4.42
		c0.273,2.041,0.584,4.396-0.143,6.195c-2.823,6.984-4.468,14.718-9.444,20.492c-5.814,6.746-10.166,14.242-14.571,21.876
		c-2.944,5.101-4.825,11.003-8.425,15.379c-6.672,8.107-11.207,17.518-17.605,25.812c-10.211,13.235-17.957,28.16-24.233,43.749
		c-0.611,1.517-1.415,3.176-2.617,4.198c-5.112,4.351-6.68,10.539-8.904,16.395c-0.711,1.873-0.573,3.823-2.243,5.604
		c-10.428,11.133-17.495,24.388-23.791,38.171c-3.63,7.946-6.928,16.102-13.725,22.324c-3.308,3.029-5.18,7.434-6.356,12.108
		c-1.005,3.991-2.555,8.365-5.246,11.307c-6.195,6.776-6.808,17.469-15.839,22.104c-0.311,0.16-0.432,0.701-0.627,1.073
		c-7.981,15.143-16.009,30.264-23.909,45.45c-1.992,3.83-0.161,9.926,3.352,12.341c3.469,2.386,8.835,0.798,12-3.556
		c0.246-0.34,0.522-0.677,0.683-1.058c4.539-10.792,13.04-19.619,15.466-31.501c0.484-2.367,1.829-4.856,3.478-6.639
		c10.103-10.924,14.723-25.27,23.535-37.081c6.671-8.94,11.451-19.291,17.966-28.486c2.393-3.378,3.795-7.458,5.638-11.223
		c0.907-1.854,1.501-3.94,2.729-5.544c8.976-11.728,15.195-25.135,22.913-37.626c3.646-5.901,8.284-11.795,7.564-19.614
		c-0.096-1.035,0.766-2.682,1.668-3.201c6.311-3.618,7.719-10.785,11.827-15.983c8.098-10.246,14.137-21.814,20.81-32.988
		c5.08-8.505,6.984-18.968,15.616-25.388c1.453-1.081,2.045-3.629,2.541-5.621c1.147-4.603,4.098-8.209,6.178-12.292
		c2.771-5.438,8.072-8.441,11.489-13.261c3.812-5.377,4.821-5.021,8.408,1.168c2.101,3.624,4.286,7.139,5.428,11.299
		c1.44,5.249,4.727,9.869,6.679,14.775c3.874,9.734,8.654,18.925,13.388,28.192c0.757,1.483,1.609,3.115,1.689,4.715
		c0.562,11.287,7.972,20.09,11.011,30.515c1.351,4.634,5.064,8.542,5.67,13.785c0.223,1.925,1.503,3.992,2.867,5.472
		c4.912,5.329,8.771,11.076,9.53,18.536c0.12,1.186,1.247,2.311,2.675,2.104c2.539-0.368,5.769-1.381,5.785-3.895
		c0.044-6.599,2.266-13.272-0.551-19.849c-4.954-11.566-9.368-23.376-14.673-34.776c-4.788-10.288-8.251-20.883-10.937-31.879
		c-1.681-6.883-3.998-13.748-7.867-19.831c-2.045-3.218-3.275-6.758-4.918-10.102c-3.198-6.506-3.929-13.765-6.976-20.212
		c-5.352-11.325-10.951-22.534-16.476-33.776c-3.275-6.662-2.694-8.032,4.339-8.702c3.8-0.362,7.51-0.819,10.985-2.491
		c4.99-2.401,7.255-7.585,5.466-12.538c-1.834-5.077-6.836-7.748-12.199-5.606c-4.366,1.743-9.461,1.569-13.217,3.768
		c-8.55,5.009-13.38,0.228-17.569-5.668c-3.048-4.288-7.346-8.071-7.693-14.025c-0.089-1.531-1.299-3.065-2.197-4.467
		c-4.065-6.346-8.503-12.474-12.228-19.01c-3.573-6.272-8.672-11.243-12.996-16.865c-6.101-7.934-12.099-15.947-18.297-23.805
		c-5.456-6.917-11.119-13.671-16.7-20.489c-4.253-5.197-8.479-10.417-12.792-15.564c-12.401-14.797-24.799-29.598-37.283-44.324
		c-6.227-7.346-12.175-15.015-19.074-21.686c-11.835-11.443-19.85-26.001-31.541-37.512c-1.454-1.431-2.215-3.55-3.377-5.298
		c-1.629-2.448-3.202-4.951-5.027-7.248c-8.83-11.117-18.224-21.826-26.456-33.364c-6.118-8.576-15.541-14.004-20.744-23.297
		c-0.753-1.344-2.632-2.032-3.922-3.107c-3.548-2.955-6.988-6.043-10.605-8.911c-3.762-2.984-6.131-6.899-7.68-11.285
		c-0.609-1.726,0.534-3.161,2.496-3.53c4.064-0.763,7.274,0.988,10.434,3.3c4.731,3.462,9.391,7.141,14.528,9.897
		c5.401,2.899,10.784,6.63,17.67,4.837c2.345-0.611,3.902,1.161,4.728,3.245c1.812,4.573,5.145,7.493,9.547,9.494
		c5.698,2.592,11.611,5.049,16.889,8.135c5.382,3.146,10.455,7.624,16.387,8.872c6.936,1.459,9.248,8.466,15.39,10.311
		c1.579,0.475,2.918,1.732,4.493,2.242c16.053,5.209,28.906,16.724,44.634,22.606c2.668,0.998,4.846,3.267,7.31,4.858
		c11.616,7.505,18.629,17.619,18.701,31.945c0.029,5.796,3.295,11.288,7.247,14.075c5.267,3.714,7.737,8.397,10.363,13.632
		c1.86,3.709,3.905,7.696,6.915,10.387c9.668,8.645,20.505,15.783,32.057,21.666c3.245,1.652,7.673,3.266,10.817,2.351
		c6.221-1.808,10.235,0.585,14.81,3.913c3.977,2.892,9.239,3.272,12.943,0.106c3.741-3.195,7.68-4.808,12.25-5.731
		c3.045-0.616,5.173-2.618,6.87-5.154c1.061-1.587,1.04-4.287,4.175-4.058c9.498,5.737,19.898,10.261,28.755,17.388
		c2.988,2.405,6.961,2.847,10.212,4.513c3.128,1.602,4.41,5.646,7.627,7.98c5.802,4.208,12.247,7.339,18.017,11.444
		c17.025,12.114,34.115,24.07,52.709,33.716c1.077,0.559,2.022,1.521,2.783,2.488c0.457,0.58,0.724,1.612,0.542,2.3
		c-0.158,0.593-1.011,1.298-1.658,1.421c-9.451,1.791-18.943,3.224-27.85,7.288c-13.438,6.131-25.906,13.853-37.76,22.556
		c-3.393,2.491-6.523,4.949-10.611,6.445c-5.437,1.988-11.615,3.912-15.436,7.845c-4.414,4.543-9.665,6.255-14.825,8.868
		c-3.777,1.913-7.647,3.282-11.605,4.678c-5.201,1.833-6.725,7.172-4.265,12.578c1.531,3.365,4.339,4.022,9.744,2.213
		c5.56-1.861,10.976-4.529,16.684-5.498c13.249-2.249,23.961-9.831,35.122-16.181c14.198-8.077,27.631-17.495,41.415-26.301
		c3.554-2.271,7.192-4.366,11.632-4.355c3.511,0.007,6.362-1.925,9.42-3.296c4.065-1.822,5.398-1.46,6.08,2.794
		c0.996,6.213,4.311,9.772,10.18,11.321l0.182-0.7c0,0,0.082,0.498,0.108,0.488c-1.791,1.676-2.605,4.242-5.159,5.333
		c-5.909,2.524-7.438,7.79-7.375,13.465c0.101,9.234-0.885,18.421-1.049,27.647c-0.173,9.651,4.431,18.56,2.983,28.197
		c-0.158,1.052,0.618,2.626,1.471,3.378c2.752,2.427,4.831,5.75,8.414,6.939c2.08-0.837,2.388-2.531,2.531-4.196
		c0.864-10.037,1.972-20.065,2.41-30.124c0.435-9.972-1.443-19.988,0.414-29.972c0.216-1.16-0.527-2.467-0.566-3.714
		c-0.065-2.071-0.563-4.459,0.258-6.167c2.702-5.621,1.244-11.632,2.266-17.353c1.211-6.773-0.576-11.156-7.46-13.802
		c-4.575-1.759-4.458-4.647-0.708-8.423c4.855-4.89,4.724-9.689-0.649-13.324c-6.499-4.397-12.784-9.172-19.156-13.678
		c-6.454-4.563-12.995-9.074-19.544-13.559c-10.721-7.344-21.556-14.57-31.807-22.537c-5.664-4.4-11.434-8.648-17.659-11.982
		c-8.109-4.345-14.689-11.334-23.92-13.721c-1.098-0.285-2.038-1.452-2.89-2.361c-2.662-2.84-6.032-4.659-9.536-5.991
		c-9.495-3.612-16.215-11.931-26.022-15.025c-2.509-0.791-3.168-3.764-4.579-5.819c-0.948-1.383-2.222-3.134-3.923-2.743
		c-5.097,1.171-9.95-0.914-14.925-0.664c-2.305,0.115-3.945,1.533-4.258,3.88c-0.226,1.691,0.18,3.611,1.772,4.43
		c2.583,1.329,5.384,2.242,8.101,3.309c9.203,3.612,12.447,11.178,8.543,19.977c-0.51,1.151-0.938,2.38-1.664,3.384
		c-0.704,0.973-1.661,2.302-2.653,2.443c-7.728,1.097-15.564,3.939-23.128-0.607c-1.04-0.626-2.44-1.503-2.667-2.494
		c-1.732-7.561-6.11-15.201-0.407-22.821c2.861-3.822,3.913-8.316,5.444-12.65c1.069-3.027,0.184-5.753-1.402-8.378
		c-1.566-2.595-3.707-4.661-6.323-6.02c-15.269-7.932-28.703-18.876-44.098-26.638c-6.671-3.363-13.455-6.703-18.937-12.168
		c-2.287-2.281-5.494-4.355-8.585-4.946c-4.47-0.855-7.496-3.47-10.89-5.923c-8.418-6.083-15.852-14.026-27.182-14.823
		c-0.774-0.054-1.677-0.519-2.232-1.078c-5.44-5.465-12.31-8.417-19.191-11.527c-4.043-1.828-6.432-6.816-11.782-6.429
		c-5.688,0.411-7.918-5.57-13.09-6.844c-7.692-1.894-14.87-5.561-20.811-11.208c-1.124-1.067-2.923-1.605-4.506-1.978
		c-5.86-1.379-10.685-4.726-15.195-8.363c-3.96-3.19-8.172-5.435-12.767-7.633c-8.175-3.911-17.889-4.961-24.362-12.421
		c-1.158-1.334-3.794-1.707-5.811-1.916c-7.024-0.728-12.632-4.046-17.85-8.579c-2.817-2.446-6.2-4.252-9.39-6.249
		c-3.552-2.224-7.136-1.543-10.869-0.214c-2.951,1.051-4.906,3.087-6.884,5.285c-3.391,3.767-7.008,7.373-11.921,9.041
		c-14.412,4.895-27.391,12.679-40.502,20.133c-16.392,9.32-32.69,18.829-48.711,28.769c-6.385,3.961-12.165,8.875-18.996,12.238
		c-2.133,1.051-4.382,3.041-3.572,5.997C464.879,135.571,467.724,135.922,470.154,136.371z M823.993,191.544
		c1.722-1.785,4.5-1.598,5.715-0.248c8.561,9.515,21.628,12.644,31.764,22.964c-5.132,4.667-5.76,10.405-6.19,16.275
		c-0.164,2.23-2.767,3.483-4.679,2.583c-3.493-1.643-6.532-3.738-7.83-7.662c-1.901-5.745-5.751-10.28-9.986-14.284
		c-4.479-4.235-7.101-9.205-8.471-15.04C823.956,194.605,822.565,193.026,823.993,191.544z M619.942,76.341
		c0.626,0.034,1.221,0.655,1.83,1.019c-0.503,0.431-0.959,1.121-1.522,1.225c-1.008,0.187-2.206,0.004-2.103-1.401
		C618.171,76.837,619.33,76.308,619.942,76.341z M843.818,998.862c0.369,3.437,0.304,6.946-3.435,8.665
		c-9.51,4.372-19.03,8.735-28.689,12.755c-2.186,0.91-4.962,0.608-7.454,0.518c-3.237-0.118-5.46-1.903-6.582-4.973
		c-1.222-3.347,0.633-5.814,2.794-7.761c1.82-1.639,4.212-2.684,6.439-3.817c1.855-0.943,3.918-1.487,5.749-2.471
		c2.621-1.409,3.34-3.72,2.089-6.394c-1.053-2.252-2.195-4.516-3.661-6.506c-1.657-2.249-3.94-2.976-6.556-1.292
		c-8.495,5.47-17.487,9.972-26.781,13.915c-1.909,0.81-3.642,2.08-5.362,3.273c-1.975,1.368-2.52,3.322-1.455,5.468
		c0.929,1.872,2.042,3.669,3.229,5.393c2.974,4.32,4.182,9.15,4.125,14.298c-0.041,3.688,0.921,5.948,4.856,7.606
		c5.657,2.385,6.746,7.439,3.271,12.097c-1.726,2.312-3.989,4.346-6.341,6.044c-5.427,3.917-11.465,7.019-15.592,12.58
		c-0.7,0.943-1.962,1.763-3.109,2.036c-12.123,2.886-21.216,11.642-32.294,16.544c-14.539,6.435-29.009,13.027-43.559,19.437
		c-1.475,0.65-3.289,0.661-4.955,0.719c-4.004,0.139-7.308,1.767-10.061,4.546c-6.06,6.116-12.881,10.599-21.841,11.067
		c-1.565,0.082-3.25,0.894-4.592,1.797c-10.172,6.847-21.284,11.643-32.983,15.093c-3.413,1.006-6.03,2.27-7.432,5.911
		c-1.608,4.175-5.328,5.08-9.41,4.376c-2.891-0.499-5.874-0.948-8.564-2.041c-6.596-2.68-13.35-5.193-19.496-8.721
		c-14.581-8.369-30.217-14.445-45.322-21.661c-7.214-3.446-14.046-7.478-20.958-11.457c-10.866-6.254-22.147-11.823-33.472-17.219
		c-2.614-1.245-5.225-2.466-7.812-3.812c-11.844-6.16-22.908-13.752-35.097-19.244c-5.458-2.459-9.501-6.824-14.318-10.11
		c-12.073-8.24-25.617-14.013-37.227-22.909c-2.984-2.286-5.783-4.859-8.415-7.546c-1.465-1.495-2.007-3.53-1.702-5.809
		c0.904-6.738,4.41-9.093,10.419-6.228c14.026,6.689,27.604,14.276,40.576,22.795c8.778,5.765,18.003,10.682,26.918,16.106
		c10.284,6.255,22.46,9.597,30.762,19.067c0.782,0.892,2.043,1.781,3.162,1.898c12.534,1.317,21.882,9.958,33.089,14.352
		c8.531,3.343,16.441,8.236,24.77,12.136c6.383,2.99,11.824,7.946,19.079,9.133c0.77,0.126,1.829,0.632,2.112,1.254
		c2.959,6.501,8.528,6.587,14.608,6.994c3.461,0.231,6.664,3.258,10.13,4.667c12.631,5.133,16.067,2.839,15.242-10.578
		c-0.214-3.466-0.954-6.26,2.273-8.972c2.14-1.799,1.586-4.812-0.936-6.446c-3.263-2.113-3.88-5.068-4.013-8.629
		c-0.674-18.001-1.52-35.996-2.266-53.995c-0.087-2.095-0.157-4.235,0.156-6.295c2.281-15.006,1.074-30.133,1.529-45.198
		c0.138-4.573,1.82-7.966,4.5-11.336c1.779-2.239,0.925-3.822-1.011-6.263c-7.892-9.944-19.302-10.385-30.216-12.104
		c-4.093-0.644-8.381-0.049-12.579-0.019c-19.744-0.243-39.178-2.964-58.648-6.223c-14.103-2.362-27.81-6.245-41.702-9.292
		c-12.202-2.677-24.441-5.23-36.671-7.808c-1.22-0.257-2.414-0.746-3.547-1.282c-3.209-1.518-4.151-5.05-2.682-8.543
		c1.952-4.644,5.925-5.894,10.234-5.893c9.678,0.004,19.342,0.673,28.689,3.442c13.662,4.047,27.432,7.647,41.427,10.331
		c4.519,0.866,9.141,1.991,13.671,1.82c6.399-0.241,12.557,0.95,18.702,2.032c10.346,1.823,20.601,3.979,31.188,2.37
		c0.818-0.124,1.721-0.139,2.511,0.07c11.921,3.162,24.28,0.92,36.28,2.96c4.87,0.828,7.775-1.064,10.07-5.405
		c4.479-8.475,7.196-17.972,14.145-25.052c1.721-10.3,10.548-17.031,13.458-26.793c0.814-2.734,2.505-5.444,4.45-7.563
		c7.752-8.439,11.99-19.118,18.493-28.349c6.234-8.852,12-18.036,17.972-27.074c0.231-0.35,0.398-0.78,0.707-1.038
		c8.962-7.463,12.272-18.564,18.078-28.055c3.75-6.13,8.07-11.749,14.186-15.706c1.085-0.703,2.409-0.239,3.246,0.854
		c0.223,0.291,0.333,1.074,0.173,1.191c-2.546,1.86-5.348,3.4,0.101,5.401c2.194,0.806,2.289,3.574,1.185,5.503
		c-10.184,17.791-17.403,37.138-28.592,54.394c-0.912,1.407-1.643,3.32-2.968,3.999c-4.881,2.498-6.23,7.469-9.143,11.386
		c-2.814,3.784-5.53,7.192-6.02,11.971c-8.3,9.089-10.98,21.372-18.196,31.285c-8.822,12.121-15.646,25.701-23.224,38.715
		c-1.255,2.156,0.15,4.34,2.555,4.251c8.8-0.321,17.566-1.733,26.414-0.707c1.181,0.137,2.635-0.155,3.644-0.771
		c8.998-5.485,19.354-4.801,29.164-6.568c8.194-1.475,16.682-1.19,24.632-4.177c1.147-0.431,2.676-0.907,3.676-0.498
		c6.468,2.643,12.303-0.656,18.388-1.637c4.139-0.667,8.314-1.484,12.481-1.537c6.373-0.082,12.545-0.381,18.192-3.861
		c2.734-1.685,5.625-1.26,8.349,0.399c4.092,2.494,4.813,7.726,1.112,10.554c-5.012,3.832-10.326,7.543-16.708,8.421
		c-10.777,1.483-20.924,6.089-32.104,5.829c-3.969-0.092-7.921,2.673-12.003,3.231c-15.723,2.148-31.223,5.686-47.227,6.232
		c-6.445,0.22-13.157,1.166-19.673,3.128c-7.171,2.159-14.887,2.474-22.335,3.764c-6.824,1.181-7.609,2.156-7.606,9.064
		c0.01,20.555,0.089,41.11,0.11,61.666c0.002,2.092,0.168,4.29-0.387,6.257c-1.517,5.372-1.074,10.355,0.026,15.924
		c1.436,7.271,1.486,15.219,0.197,22.535c-2.209,12.547,1.044,24.961-0.451,37.406c-0.397,3.305,2.642,4.964,6.201,3.43
		c7.702-3.318,15.376-6.72,22.917-10.385c6.795-3.303,13.293-7.212,21.177-7.513c1.517-0.058,3.408-0.866,4.415-1.974
		c4.965-5.466,11.912-7.68,17.959-11.348c3.992-2.421,8.241-4.315,13.027-4.192c3.928,0.101,5.991-2.547,8.256-5.021
		c1.525-1.664,2.149-3.54,1.433-5.754c-0.646-1.994-0.946-4.201-2.011-5.939c-4.935-8.053-2.25-17.13-3.603-25.651
		c-0.376-2.364,0.425-5.036,1.147-7.427c1.855-6.141,8.253-8.079,14.019-4.442c1.202,0.758,1.81,3.303,3.766,1.666
		c0.492-0.411-0.028-2.244-0.337-3.354c-0.574-2.07,0.148-3.41,2.211-3.289c0.98,0.058,2.487,1.185,2.725,2.098
		c0.848,3.241,1.167,6.593-0.269,9.833c-1.191,2.687-2.039,5.592-3.607,8.034c-4.169,6.492-1.489,12.152,1.968,17.555
		c3.38,5.282,7.555,5.839,12.604,1.779c8.254-6.638,17.598-11.352,26.989-16.044c4.534-2.267,5.536-4.134,4.62-9.089
		c-1.619-8.749-5.422-16.726-9.342-24.623c-0.737-1.485-2.083-2.678-2.761-4.18c-1.633-3.615-0.359-7.383,3.259-9.643
		c2.844-1.775,5.727-3.571,8.791-4.899c11.106-4.813,20.631-12.771,32.498-16.109c2.924-0.822,4.1-3.92,5.767-6.372
		c3.027-4.453,6.32-4.911,10.658-1.974c6.395,4.33,11.274,10.13,14.94,16.812c2.396,4.365,4.954,7.516,10.524,7.22
		C841.522,993.171,843.46,995.519,843.818,998.862z M664.46,437.696c-1.566-0.941-3.137-0.914-4.558,0.423
		c-5.383,5.066-12.175,0.958-18.073,2.736c-0.324,0.098-0.797-0.181-1.163-0.359c-2.309-1.129-0.965-5.702-4.258-5.303
		c-2.572,0.312-0.872,4.819-3.797,5.648c-0.798,0.226-1.659,0.311-2.493,0.32c-15.955,0.17-31.911,0.326-47.867,0.461
		c-1.255,0.011-2.511-0.177-3.768-0.237c-3.595-0.171-4.358-5.871-8.217-4.678c-3.082,0.953-5.679,4.356-8.659,4.594
		c-7.91,0.635-15.985,1.701-23.851-0.132c-4.6-1.072-9.108-1.252-13.739-0.962c-8.77,0.549-17.581-1.195-26.34,0.458
		c-0.806,0.153-1.747,0.177-2.504-0.088c-9.447-3.309-18.769-0.26-28.168,0.265c-4.495,0.251-9.13,1.81-13.676-0.189
		c-2.471-1.088-4.9-0.184-7.362,0.472c-1.98,0.527-4.117,0.433-6.147,0.819c-6.832,1.298-11.597-8.335-19.532-3.09
		c-5.85,3.867-13.247,1.94-19.76,1.761c-15.051-0.413-30.22,1.288-45.179-1.891c-3.246-0.689-7.066-1.472-9.972-0.418
		c-7.298,2.645-13.895,2.201-20.515-1.633c-1.422-0.824-3.732,1.085-3.183,2.51c2.59,6.721,3.364,13.724,3.468,20.843
		c0.034,2.244,0.958,4.091,2.528,5.561c3.21,3.007,5.035,6.526,5.273,11.028c0.077,1.459,1.195,3.204,2.361,4.211
		c9.197,7.937,14.128,18.613,18.783,29.375c1.851,4.282,3.961,8.173,6.851,11.852c3.35,4.264,6.391,8.809,8.013,14.183
		c1.084,3.593,2.772,6.936,5.752,9.6c1.824,1.631,3.114,3.937,4.389,6.091c8.341,14.08,16.631,28.19,24.884,42.322
		c1.049,1.794,2.191,3.684,2.601,5.671c1.133,5.493,2.774,10.487,8.329,13.154c0.686,0.33,1.357,1.173,1.58,1.915
		c3.68,12.299,15.171,19.805,19.425,31.81c1.236,3.491,3.711,6.566,5.755,9.743c7.234,11.246,14.564,22.429,21.763,33.697
		c1.34,2.098,2.415,4.412,3.291,6.745c0.892,2.378,1.666,4.687,3.711,6.428c3.932,3.346,6.134,7.725,8.134,12.487
		c1.739,4.141,5.184,7.532,7.518,11.466c5.347,9.017,10.635,18.092,15.911,27.127c5.254,8.997,10.561,18.117,16.623,26.686
		c2.671,3.775,5.306,7.53,6.378,12.197c0.455,1.979,1.334,4.093,2.644,5.606c6.248,7.226,9.397,15.827,11.367,24.931
		c0.661,3.058,2.119,4.797,4.645,6.796c8.453,6.688,14.043,15.334,14.597,26.531c0.206,4.156-2.035,6.038-6.183,5.704
		c-3.635-0.293-6.521-1.968-8.504-4.768c-5.308-7.497-12.14-13.967-15.299-22.941c-1.402-3.984-3.676-7.577-6.773-10.521
		c-5.26-5-8.961-10.925-11.928-17.567c-2.887-6.465-7.049-12.174-11.52-17.837c-6.189-7.84-10.762-16.975-15.837-25.667
		c-6.545-11.211-13.647-22.049-18.973-34.033c-3.334-7.502-9.315-13.827-14.103-20.683c-1.199-1.717-3.249-3.361-3.424-5.18
		c-0.862-8.966-7.328-14.506-11.906-21.333c-20.973-31.28-41.042-63.155-59.96-95.715c-6.107-10.51-11.729-21.268-18.724-31.257
		c-2.128-3.04-3.196-6.814-4.819-10.218c-1.257-2.635-2.086-5.745-4.036-7.732c-7.096-7.231-9.759-16.477-12.21-25.756
		c-0.807-3.055-2.077-5.327-4.269-7.387c-5.623-5.285-9.813-11.526-11.704-19.066c-1.061-4.231-3.87-7.406-5.93-11.033
		c-1.407-2.475-0.352-7.268-3.458-7.453c-4.545-0.271-4.912,5-6.421,8.138c-2.723,5.664-4.74,11.665-7.13,17.494
		c-1.594,3.887-4.615,5.137-9.204,3.976c-3.274-0.829-5.838-4.158-5.48-7.471c0.177-1.633,0.741-3.254,1.321-4.808
		c4.989-13.369,10.014-26.723,15.045-40.075c0.879-2.332,1.835-4.635,3.218-8.117c-11.245-0.011-11.304,0.073-19.752-5.872
		c-2.133-1.501-4.249-2.602-6.797-2.998c-6.717-1.044-12.497-4.357-18.641-6.988c-7.645-3.272-13.745-9.429-22.063-11.125
		c-4.406-0.899-4.731-7.03-9.688-7.367c-3.798-0.257-7.315-1.59-10.727-3.4c-9.588-5.087-18.9-10.647-29.164-14.515
		c-6.196-2.337-11.718-6.46-17.552-9.761c-5.065-2.866-6.211-7.769-6.339-12.928c-0.15-6.087,4.765-8.725,10.154-5.663
		c7.652,4.349,15.834,7.685,23.566,11.763c10.29,5.428,22.224,7.869,30.852,16.422c0.871,0.863,2.046,1.563,3.208,1.966
		c17.087,5.918,32.653,14.918,48.299,23.755c9.072,1.472,16.374,6.185,22.748,12.53c2.348,2.337,5.279,2.613,8.201,2.294
		c8.3-0.911,16.598-1.909,24.851-3.176c5.009-0.769,9.822-1.536,14.922-0.024c4.436,1.316,9.073,1.223,13.598-0.64
		c3.984-1.641,8.411-1.553,12.459-0.811c16.638,3.053,33.449,1.261,50.149,2.254c2.091,0.124,4.381-0.537,6.265,0.097
		c8.96,3.015,18.123,1.728,27.232,1.771c8.789,0.042,17.577,0.287,26.366,0.237c4.617-0.026,9.207-0.538,13.773,0.775
		c1.53,0.439,3.352,0.417,4.922,0.07c12.921-2.852,25.965-0.413,38.935-0.958c1.999-0.083,4.054,0.95,6.069,1.515
		c4.5,1.262,8.892,1.822,13.599,0.4c3.137-0.948,6.749-1.389,9.951-0.859c9.53,1.58,19.363-1.254,28.74,2.18
		c1.067,0.39,2.566,0.232,3.663-0.193c10.604-4.109,21.697-0.902,32.476-2.246c0.809-0.1,1.976-0.151,2.452,0.314
		c4.609,4.494,9.192,4.044,13.905,0.232c0.268-0.217,0.905-0.267,1.216-0.102c5.56,2.954,10.857,1.772,16.791,0.476
		c5.473-1.195,11.604,0.541,17.434,1.097c2.494,0.239,5.024,0.535,7.423,1.211c2.898,0.816,4.779,3.815,4.699,6.753
		c-0.079,2.831-2.415,6.023-5.431,5.976C683.307,440.244,673.473,443.11,664.46,437.696z M1077.071,703.742
		c0.927,4.829,0.903,10.081,0.074,14.943c-0.936,5.488-0.606,10.847-0.6,16.297c0.023,18.053-0.208,36.104-0.34,54.157
		c-3.212,9.785-0.365,20-2.187,29.927c-1.74,9.488-2.874,19.087-4.234,28.642c-1.097,7.712-1.667,8.434-9.423,7.041
		c-4.749-0.851-6.766,1.465-9.031,4.877c-1.989,2.994-4.478,3.233-7.592,1.61c-1.928-1.005-3.738-2.559-2.781-4.906
		c1.23-3.021,0.672-4.503-1.499-7.379c-6.011-7.969-10.906-16.77-13.989-26.491c-5.054-15.943-7.99-32.532-14.574-47.996
		c-2.33-5.473-2.203-11.433-4.036-17.094c-3.487-10.774-9.442-20.485-12.54-31.382c-1.257-4.419-3.597-8.534-3.181-13.354
		c0.071-0.816,0.157-1.819-0.226-2.459c-7.599-12.691-8.127-27.839-14.758-41.075c-5.357-10.691-7.657-22.953-10.922-34.628
		c-1.04-3.719-1.935-6.956-5.106-9.673c-2.913-2.498-2.644-5.588-0.536-7.699c2.73-2.733,5.755-2.959,8.992-0.609
		c4.138,3.003,7.851,6.409,9.462,11.465c4.213,13.217,11.068,25.205,17.126,37.581c3.681,7.52,6.556,15.443,9.597,23.262
		c0.9,2.314,1.539,4.881,1.583,7.344c0.071,3.963,1.875,7.092,3.379,10.578c4.3,9.964,8.064,20.172,11.709,30.402
		c4.225,11.858,9.243,23.6,11.818,35.833c2.853,13.562,9.217,26.002,11.148,39.818c0.792,5.668,3.922,11.019,6.101,16.469
		c0.255,0.64,1.196,1.35,1.875,1.41c1.733,0.153,1.606-1.389,1.776-2.51c0.125-0.826,0.274-1.718,0.097-2.51
		c-2.251-10.038-1.138-19.994,0.428-29.989c0.707-4.514,1.465-9.04,0.407-13.734c-0.526-2.329,0.167-4.982,0.554-7.451
		c0.256-1.633,1.743-3.472,1.308-4.753c-2.558-7.525,0.651-14.916,0.183-22.232c-1.018-15.949-1.152-31.919-0.055-47.763
		c0.672-9.704-1.014-19.11-0.767-28.678c0.239-9.236-0.006-18.484-0.106-27.728c-0.013-1.224-0.428-2.445-1.034-5.674
		c-7.524,5.497-14.815,2.965-21.651,2.84c-5.751-0.105-10.934-4.897-14.503-9.09c-4.237-4.975-6.09-11.867-5.364-18.852
		c0.184-1.778,1.402-3.184,3.203-3.297c1.101-0.069,2.647,0.458,3.327,1.273c3.219,3.859,6.002,8.006,8.261,12.554
		c1.774,3.572,4.991,4.526,8.423,3.002c6.91-3.071,11.49-8.447,13.895-15.458c1.079-3.147,1.315-6.724-2.432-8.872
		c-3.552-2.037-3.749-5.081-2.94-8.712c0.819-3.68,1.113-7.473,1.749-11.198c1.857-10.888-1.137-19.589-10.381-26.338
		c-5.009-3.656-9.772-4.51-15.265-2.262c-4.268,1.747-8.416,3.789-12.69,5.519c-3.426,1.386-6.776-1.663-6.022-5.47
		c0.317-1.6,0.81-3.306,1.716-4.625c6.145-8.936,9.461-18.602,8.244-29.58c-0.137-1.231-0.166-2.623,0.265-3.744
		c2.445-6.37,1.6-12.259-1.931-18.012c-0.813-1.324-0.791-3.187-1.062-4.816c-1.193-7.182-3.854-8.449-9.646-3.948
		c-6.98,5.421-13.325,11.21-14.146,21.167c-0.419,5.092-9.778,8.303-14.449,5.72c-2.392-1.324-3.72-4.443-2.355-7.743
		c2.231-5.392,4.761-10.708,7.714-15.734c1.675-2.854,3.966-5.315,5.355-8.454c1.888-4.266,4.948-6.79,10.028-4.686
		c1.744,0.723,3.783,0.357,4.25-1.35c1.333-4.879,5.025-5.038,8.912-5.139c4.428-0.116,8.032,1.268,11.13,4.727
		c4.838,5.401,8.347,11.542,11.359,18.034c0.516,1.112,0.986,2.408,0.935,3.595c-0.429,10.045,2.948,19.972,0.853,30.077
		c-0.406,1.953-1.22,4.762,1,5.709c3.5,1.494,5.052,6.606,8.97,6.008c5.975-0.912,8.337,2.465,10.756,6.617
		c0.599,1.029,1.711,1.794,3.141,1.465c1.524-0.352,1.785-1.662,1.894-2.843c0.193-2.083,0.156-4.189,0.179-6.286
		c0.01-0.838,0.103-1.734-0.141-2.51c-1.935-6.133,5.234-10.733,3.021-16.657c-2.358-6.312-0.533-12.499-0.299-18.714
		c0.22-5.861,1.014-11.71,1.75-17.54c0.628-4.983,3.496-7.409,8.396-7.329c2.294,0.038,4.276,1.17,4.742,3.393
		c0.684,3.262,1.871,6.996,0.914,9.893c-1.565,4.741-0.935,8.823,0.256,13.377c2.175,8.316,0.869,16.76-0.719,24.999
		c-0.735,3.817-1.203,7.219,0.111,11.018c3.938,11.39,4.092,22.978,0.982,34.616c-0.216,0.807-0.669,1.765-0.429,2.448
		c3.305,9.426-1.05,19.182,1.31,28.685c0.688,2.773,0.69,5.948,0.106,8.751c-0.88,4.234-0.758,8.269,0.01,12.468
		c0.848,4.636,0.655,9.235-2.529,13.184c-1.978,2.455-1.241,4.569,0.798,6.589c2.627,2.604,3.198,5.719,2.333,9.282
		c-1.518,6.25-0.676,12.322,0.42,18.658c1.041,6.021,0.235,12.481-0.541,18.649C1075.893,696.558,1076.347,699.974,1077.071,703.742
		z M353.553,912.377c-0.027,2.755-1.106,4.974-3.708,6.039c-5.203,2.13-11.189,3.516-15.985,1.109
		c-9.608-4.823-19.735-3.033-29.605-4.165c-11.208-1.286-22.458-2.045-33.461-4.895c-7.299-1.89-15.005-2.387-22.134-4.713
		c-10.776-3.517-22.146-4.526-32.772-8.394c-4.912-1.788-9.958-1.272-14.949-1.698c-2.041-0.174-4.882-0.276-5.602,1.719
		c-1.093,3.029,1.962,4.211,4.062,5.363c19.48,10.689,37.763,23.319,56.731,34.836c10.014,6.082,20.627,11.267,30.209,17.946
		c7.842,5.467,16.385,9.859,23.47,16.695c5.572,5.377,13.303,8.461,19.826,12.929c3.756,2.574,7.836,5.079,9.86,9.465
		c0.416,0.902,0.064,2.474-0.48,3.424c-0.676,1.183-2.159,1.49-3.284,0.557c-1.578-1.311-3.204-3.713-5.222-2.088
		c-3.728,3.001-6.774,1.84-10.362-0.083c-14.409-7.72-29.309-14.604-43.284-23.029c-14.679-8.851-29.876-16.947-43.635-27.302
		c-1.3-0.978-2.886-1.861-4.455-2.141c-3.884-0.694-7.327-2.535-10.067-4.976c-8.196-7.301-19.084-10.49-26.99-18.135
		c-14.531-6.056-24.516-18.762-38.254-26.082c-6.672-3.555-11.57-9.655-16.957-14.955c-1.937-1.904-2.421-4.262-2.351-6.901
		c0.357-13.384-0.098-26.728-0.812-40.112c-0.442-8.295-0.446-16.622-1.25-24.94c-0.36-3.732-0.195-7.521-1.045-11.235
		c-1.472-6.428,0.193-12.489,2.255-18.509c0.933-2.726,2.736-3.966,5.592-4.135c2.772-0.165,4.909,0.691,6.441,3.017
		c1.425,2.164,2.046,4.537,2.18,7.126c0.306,5.87,1.222,11.75,1.017,17.594c-0.312,8.893,2.342,17.279,3.912,26.051
		c3.713-5.985,6.175-11.914,7.255-18.684c1.169-7.329,3.425-14.731,6.605-21.438c5.234-11.037,7.613-23.055,12.699-34.07
		c4.918-10.652,10.224-21.126,15.237-31.737c1.607-3.403,3.544-6.884,4.085-10.515c1.58-10.61,6.422-19.831,10.998-29.268
		c2.543-5.246,4.192-10.926,6.211-16.423c0.287-0.781,0.279-1.676,0.586-2.446c5.882-14.743,11.792-29.474,17.696-44.208
		c0.929-2.319,1.951-4.605,2.771-6.961c0.967-2.775,1.193-5.98,2.734-8.353c5.78-8.9,8.008-19.254,12.328-28.736
		c4.176-9.165,8.005-18.49,12.248-27.623c1.575-3.389,3.537-6.741,5.972-9.547c2.517-2.902,4.844-5.074,4.388-9.714
		c-0.352-3.58,2.892-6.805,5.725-9.372c2.188-1.984,6.45-0.609,6.803,2.385c0.298,2.536,0.489,4.904,1.934,7.136
		c1.492,2.306,1.159,4.761-0.146,7.142c-2.05,3.738-3.114,7.771-3.593,11.999c-0.139,1.223-0.372,2.734-1.153,3.539
		c-6.485,6.677-6.745,16.031-10.411,23.915c-3.71,7.975-5.848,16.782-10.235,24.317c-5.765,9.906-7.709,21.037-12.126,31.309
		c-2.652,6.164-5.644,12.182-8.363,18.318c-5.75,12.977-10.095,26.479-14.956,39.794c-4.011,10.985-8.52,21.817-15.024,31.666
		c-0.678,1.026-1.505,2.306-1.436,3.416c0.464,7.374-3.969,12.753-7.547,18.336c-5.298,8.268-6.193,18.138-10.457,26.786
		c-2.603,5.278-4.347,10.904-9.464,14.521c-1.772,1.253-2.889,3.195-2.587,5.441c1.677,12.45-4.613,22.747-8.95,33.571
		c-1.242,3.1-3.306,6.075-3.71,9.27c-1.342,10.618-7.56,18.239-14.636,25.394c-1.968,1.989-2.684,4.135-2.577,6.757
		c0.072,1.749,0.48,3.534,2.16,4.237c3.826,1.596,7.297,3.959,11.714,4.26c11.281,0.771,22.541,1.863,33.802,2.914
		c2.071,0.193,4.521,0.209,6.08,1.317c6.072,4.31,14.447,0.74,20.074,6.151c4.569,0.05,9.142,0.215,13.709,0.106
		c2.532-0.061,4.994-0.259,7.443,0.691c8.28,3.212,17.25,3.394,25.721,5.738c10.334,2.86,21.581,3.174,30.293,10.728
		c0.801,0.696,2.705,1.195,3.425,0.736c5.05-3.227,9.847-0.144,14.672,0.42c7.053,0.825,13.874,3.096,21.119,3.046
		c2.813-0.019,5.681,1.364,8.443,2.34C352.754,907.328,353.58,909.656,353.553,912.377z M133.291,726.843
		c0.287,2.41,1.42,4.777,2.496,7.009c0.469,0.974,1.722,2.16,2.657,2.193c1.789,0.065,3.175-1.385,3.374-3.112
		c1.388-12.057,3.369-24.108,3.726-36.205c0.408-13.79-0.547-27.628-1.152-41.435c-0.446-10.167,1.209-11.885,10.171-7.926
		c9.188,4.058,18.653,4.513,28.338,4.113c3.317-0.137,5.877-2.316,6.472-4.973c0.702-3.139-1.197-6.549-4.751-7.923
		c-1.93-0.746-4.101-0.842-6.091-1.465c-4.065-1.269-5.571-3.51-4.116-7.637c2.093-5.936,3.99-11.854,4.729-18.13
		c0.14-1.18,0.719-2.536,1.543-3.367c3.467-3.497,4.174-8.107,5.502-12.51c1.089-3.615,2.438-7.153,3.713-10.71
		c0.942-2.625,2.811-4.079,5.635-4.215c4.569-0.219,9.033-1.504,13.738-0.482c3.778,0.821,7.506-0.116,10.679-2.632
		c2.35-1.862,2.215-6.173-0.449-7.457c-2.244-1.08-5.049-1.264-6.972-2.696c-13.15-9.792-15.288-4.771-10.763-22.174
		c0.106-0.404,0.226-0.834,0.195-1.241c-0.252-3.317-0.729-6.628-0.766-9.945c-0.044-3.901,4.896-4.421,5.72-7.868
		c0.292-1.221,1.018-2.372,1.139-3.595c0.876-8.858,4.179-17.101,6.661-25.517c1.689-5.728-0.081-10.751-1.336-15.968
		c-0.535-2.226-4.751-3.05-6.395-1.349c-1.436,1.487-2.689,3.178-3.852,4.894c-3.356,4.953-4.602,10.755-6.446,16.322
		c-6.309,19.054-15.63,37.065-19.722,56.9c-0.204,0.99-1.665,2.618-2.227,2.497c-5.259-1.134-11.224,0.726-15.814-2.654
		c-3.876-2.854-8.285-3.936-12.539-5.639c-2.573-1.029-3.25-4.115-1.155-6.095c4.563-4.314,9.267-8.344,12.645-13.866
		c6.776-11.076,13.773-22.035,22.781-31.546c2.275-2.401,4.584-5.171,5.672-8.204c1.71-4.763,3.062-9.485,6.62-13.38
		c1.737-1.901,0.466-4.801-2.102-6.244c-2.366-1.329-4.831-1.839-7.003,0.146c-4.015,3.665-8.285,7.164-11.7,11.344
		c-3.924,4.804-7.904,9.527-11.232,14.97c-4.257,6.96-11.094,12.341-18.332,20.006c-0.898-9.959-2.662-17.89-1.122-25.686
		c1.735-8.784,1.121-17.543,1.531-26.322c0.404-8.663-2.334-17.311,0.143-25.981c0.416-1.457-0.121-3.416-0.769-4.903
		c-1.77-4.056-1.53-8.269-1.109-12.414c0.75-7.404-1.294-15.018,1.966-22.285c0.759-1.695-0.209-4.122-0.217-6.212
		c-0.01-2.93-0.669-6.183,0.354-8.733c3.635-9.062-0.728-18.086,0.431-27.121c0.434-3.386-4.329-6.394-9.303-6.883
		c-2.902-0.286-5.196,1.466-6.039,5.153c-2.517,11.014-5.987,21.85-4.706,33.485c0.497,4.516-0.615,9.191-0.753,13.802
		c-0.289,9.609-1.503,19.159-0.072,28.846c2.207,14.934,2.898,30.184,0.443,44.976c-2.634,15.879,2.184,31.613-0.922,47.289
		c3.655,8.508,0.299,17.434,1.543,26.173c1.048,7.357,0.934,15.074,0.03,22.472c-1.633,13.379,0.451,26.75-0.769,40.089
		c-0.15,1.647,0.201,3.349,0.395,5.017c1.792,15.433,2.855,30.962,1.955,46.434c-0.885,15.229,2.352,30.038,2.966,45.083
		c0.082,2.001,0.995,4.06,1.892,5.915C131.93,720.329,132.885,723.43,133.291,726.843z M140.299,572.027
		c3.147-2.966,6.5-5.417,11.003-2.239c1.003,0.708,2.312,0.967,3.392,1.587c4.998,2.869,11.523,2.161,15.773,6.754
		c-1.065,6.125-1.873,12.31-3.282,18.355c-1.037,4.444-3.913,8.655-4.118,13.057c-0.453,9.705-7.469,11.924-14.491,14.417
		c-1.639,0.583-3.137-0.445-4.005-2.137c-1.157-2.256-1.94-4.437-1.522-7.143c0.699-4.519,0.925-9.111,1.103-11.008
		c-0.058-8.093-0.197-13.506-0.098-18.916c0.059-3.19-0.994-5.664-3.568-7.526C138.221,575.59,138.558,573.668,140.299,572.027z
		 M155.21,345.986c1.111-0.348,2.136-1.297,2.955-2.197c4.605-5.062,10.118-8.763,16.36-11.517c4.369-1.927,6.712-6.025,9.885-9.284
		c3.032-3.113,8.829-2.425,12.277-5.868c1.481-1.479,2.609-3.433,4.304-4.556c4.55-3.012,7.558-8.138,12.871-9.936
		c10.122-3.427,18.242-10.307,27.199-15.666c5.807-3.475,12.633-7.441,11.745-16.384c-0.081-0.824,1.217-2.304,2.148-2.59
		c1.575-0.483,3.558-0.264,4.595,1.212c0.904,1.288,1.185,3.008,1.779,4.522c2.379,6.065,6.213,10.93,12.185,13.718
		c5.288,2.47,11.049,3.767,16.114,6.919c2.457,1.528,5.661,1.41,8.615,0.613c2.683-0.725,4.369-2.425,4.81-5.161
		c0.363-2.253-0.479-4.3-2.331-5.48c-2.793-1.779-5.823-3.186-9.135-4.956c0.926-1.711,1.339-3.62,2.514-4.458
		c7.589-5.413,11.895-15.127,22.487-16.739c2.732-0.416,4.87-3.104,6.647-5.556c0.947-1.306,2.11-2.886,3.51-3.366
		c12.968-4.443,23.125-13.564,34.471-20.658c10.247-6.408,20.704-12.656,29.093-21.679c3.17-3.408,3.53-3.201,1.452-8.351
		c-0.824-2.039-1.838-3.863,0.519-5.455c9.667-6.531,20.045-12.051,28.59-20.182c0.557-0.529,1.547-0.609,2.342-0.881
		c9.741-3.328,17.086-10.505,25.489-15.973c1.688-1.098,3.077-2.92,4.108-4.696c1.5-2.584,0.007-4.94-1.623-6.853
		c-1.495-1.755-3.671-1.886-5.726-0.873c-2.22,1.094-3.426,3.745-6.216,4.037c-10.384,1.087-19.108,5.924-27.291,12.036
		c-1.325,0.989-2.885,1.77-4.453,2.314c-10.339,3.589-17.144,13.21-27.836,16.251c-1.472,0.419-2.604,2.067-3.866,3.177
		c-1.914,1.683-4.189,2.615-6.477,3.703c-8.648,4.112-17.45,8.064-25.566,13.091c-16.012,9.918-32.457,19.21-47.387,30.813
		c-1.638,1.273-3.656,2.047-5.458,3.119c-4.321,2.574-8.704,5.058-12.909,7.811c-14.695,9.62-28.458,20.722-44.131,28.754
		c-4.994,2.559-4.662,10.078-9.929,10.563c-5.269,0.485-9.536,2.076-13.997,4.588c-15.765,8.875-29.511,20.591-44.121,31.068
		c-8.237,5.907-13.714,14.654-18.771,23.409c-1.347,2.332-1.204,4.98,0.998,6.885C150.164,347.104,152.793,346.743,155.21,345.986z
		 M311.56,241.812c0.377-0.029,1.279,1.235,1.177,1.383c-0.618,0.902-1.369,1.783-2.27,2.378c-0.276,0.183-1.161-0.554-1.767-0.869
		C308.663,242.76,309.889,241.94,311.56,241.812z M273.038,266.275c2.63-2.737,5.562-5.1,9.184-6.42
		c2.75-1.002,5.538-1.901,8.309-2.845c1.217-1.616,2.304-3.357,3.693-4.807c1.094-1.141,2.523-2.24,4.305-1.281
		c1.49,0.802,0.94,5.667-0.975,6.403c-1.826,0.702-3.975,0.568-5.981,0.801c-4.232,4.001-9.108,7.558-8.583,14.473
		c0.112,1.47-1.549,1.657-2.855,1.668c-2.585,0.022-5.011-0.345-6.816-2.475C271.813,270.015,271.235,268.152,273.038,266.275z
		 M1039.24,879.151c-6.182,1.801-11.213-0.335-16.376-3.193c-1.301-0.72-3.307-0.423-4.946-0.228
		c-3.75,0.444-7.51,0.943-11.201,1.728c-6.147,1.31-12.242,2.86-18.36,4.31c-4.865,6.935-11.572,0.651-17.164,2.385
		c-0.797,0.247-1.825,0.166-2.399,0.649c-4.669,3.936-10.214,2.761-15.584,2.979c-4.604,0.185-9.218,0.711-13.775,1.427
		c-15.693,2.466-31.358,5.113-47.047,7.604c-2.471,0.392-5.029,0.569-7.523,0.428c-7.689-0.435-15.097,0.973-22.267,3.475
		c-2.421,0.844-4.677,1.636-7.259,1.479c-9.696-0.588-19.226-0.14-28.186,4.301c-1.443,0.715-3.295,1.133-4.877,0.959
		c-10.289-1.136-19.957,1.407-29.574,4.541c-4.286,1.396-5.518,4.732-2.952,8.254c1.902,2.612,4.569,3.493,7.59,3.858
		c8.416,1.017,16.761-0.114,25.072-1.032c19.167-2.115,38.302-4.508,57.443-6.844c9.571-1.168,19.195-2.096,28.658-3.867
		c4.137-0.774,8.158-1.602,12.387-1.657c3.761-0.05,7.554-0.386,11.266-0.997c16.52-2.717,33.01-5.614,49.527-8.348
		c2.282-0.377,4.641-0.292,6.972-0.376c-1.883,3.354-5.258,4.806-8.429,6.57c-8.428,4.687-17.399,8.67-25.065,14.392
		c-10.523,7.852-22.205,13.403-33.538,19.707c-12.005,6.681-23.939,13.54-36.497,19.091c-12.044,5.323-22.076,13.71-33.202,20.407
		c-2.351,1.415-3.403,3.576-2.837,6.404c0.758,3.788,3.07,6.359,6.373,6.919c2.973,0.503,5.832,0.029,8.653-0.994
		c13.752-4.987,25.674-13.884,39.597-18.523c1.118-0.372,1.905-1.645,2.968-2.302c1.774-1.096,3.544-2.554,5.498-2.95
		c10.148-2.053,18.073-8.68,26.573-13.643c14.777-8.627,29.017-18.224,44.21-26.167c15.973-8.35,29.753-20.363,46.415-27.538
		c1.125-0.484,2.343-1.25,3.001-2.23c2.565-3.822,5.216-7.186,9.742-9.218c2.965-1.332,2.448-5.141,1.581-7.991
		C1043.092,880.896,1041.217,878.574,1039.24,879.151z M994.828,900.067c-1.739,0.382-3.561,0.396-5.364,0.522
		c0.929-1.566,1.72-3.26,2.924-4.574c1.012-1.107,3.641-0.094,3.933,1.289C996.598,898.617,996.012,899.807,994.828,900.067z
		 M432.095,253.43c6.107-13.632,18.382-22.706,25.957-35.376c4.891-8.181,11.821-15.219,18.292-22.357
		c7.557-8.338,14.608-17.082,22.846-24.905c7.177-6.816,12.125-15.934,18.347-23.807c6.748-8.538,13.47-17.138,21.752-24.317
		c1.939-1.681,3.996-3.042,6.799-2.4c1.376,0.316,2.174,1.073,2.528,2.868c-3.835,9.63-4.243,21.012-12.21,29.426
		c-9.456,9.987-17.555,21.163-27.204,31.011c-4.372,4.463-8.12,9.6-11.756,14.712c-12.197,17.145-26.463,32.451-41.415,47.158
		c-1.527,1.502-3.084,2.937-3.479,5.082c-1.678,9.105-7.862,15.424-13.417,22.183c-4.453,5.417-7.666,11.854-14.109,15.591
		c-1.533,0.89-2.053,3.539-3.021,5.387c-0.774,1.475-1.153,3.772-2.342,4.319c-9.051,4.154-10.662,14.293-17.002,20.672
		c-6.482,6.523-11.886,14.104-17.891,21.112c-5.402,6.305-8.928,14.304-16.633,18.544c-2.382,8.331-11.72,11.751-14.179,20.095
		c-0.445,1.51-1.654,3.12-2.968,3.995c-6.161,4.097-9.276,10.641-13.397,16.338c-5.002,6.918-11.087,12.54-18.274,17.062
		c-2.816,1.773-5.522,1.638-8.235-0.15c-2.821-1.858-3.807-4.752-2.102-7.553c2.387-3.92,4.927-7.775,7.721-11.411
		c8.909-11.592,17.976-23.061,26.945-34.606c1.024-1.318,1.514-3.644,2.761-4.095c7.167-2.597,8.546-9.884,12.722-14.868
		c3.481-4.156,5.901-9.167,10.518-12.444c2.758-1.959,4.35-5.025,5.77-8.125c0.86-1.878,1.861-4.838,3.255-5.131
		c7.038-1.478,7.617-8.477,11.569-12.49c3.83-3.889,6.954-8.422,10.582-12.375c10.781-11.743,17.41-26.724,29.594-37.29
		C431.047,254.739,431.77,254.155,432.095,253.43z M362.157,983.627c1.891,2.764,4.334,5.257,5.718,8.246
		c5.948,12.846,17.225,18.978,29.538,23.648c3.478,1.32,7.276,1.725,10.535,3.853c2.776,1.814,5.995,1.635,8.018-0.878
		c3.644-4.528,8.583-7.578,11.991-12.64c3.485-5.175,7.008-10.257,9.904-15.809c1.908-3.66,4.311-4.374,8.417-3.303
		c2.156,0.563,3.519,1.766,4.711,3.712c1.958,3.197,4.049,6.458,6.708,9.054c9.538,9.312,11.302,21.103,11.281,33.53
		c-0.005,2.657-0.867,5.025-3.985,5.518c-3.085,0.488-5.403,2.111-7.278,4.52c-1.586,2.038-0.94,6.055,1.421,6.371
		c4.12,0.551,7.774,2.32,11.671,3.376c2.952,0.8,5.851-0.364,7.817-2.938c3.564-4.668,7.236-9.26,6.999-15.696
		c-0.124-3.348,1.55-4.806,5.122-5.722c7.155-1.836,8.673-5.532,5.887-12.076c-1.821-4.276-4.332-8.025-8.124-11.001
		c-3.944-3.096-7.779-6.453-11.097-10.198c-5.78-6.523-10.171-14.413-18.734-18.04c-0.35-0.149-0.592-0.582-0.857-0.903
		c-6.425-7.798-16.963-10.468-23.142-18.569c-10.343-5.339-20.565-10.936-31.086-15.897c-4.479-2.113-9.584-2.898-14.525-4.321
		c-1.148,0.32-2.42,0.472-3.5,1.009c-6.05,3.007-12.229,5.404-19.118,5.751c-1.438,0.072-3.198,1.263-4.127,2.466
		c-2.552,3.306-4.909,6.758-6.322,10.806c-1.185,3.393-1.05,6.487,0.458,9.727c1.951,4.185,7.865,7.187,4.033,13.266
		C360.176,980.99,361.467,982.62,362.157,983.627z M383.897,992.376c-3.283,1.335-8.404-2.361-9.245-6.252
		c-0.239-1.111,0.577-2.611,1.955-2.628c2.733-0.034,5.469,0.263,8.206,0.439c-0.007,0.32-0.018,0.639-0.012,0.957
		C384.85,987.463,387.944,990.731,383.897,992.376z M383.704,953.319c4.915,0.138,8.507,3.328,12.808,4.771
		c12.37,4.149,15.963,13.844,16.512,25.447c0.196,4.158-0.126,8.383-0.657,12.52c-0.463,3.604-3.711,4.992-6.478,2.874
		c-3.649-2.793-7.125-5.821-10.57-8.866c-3.102-2.741-5.918-5.88-10.373-6.375c-3.213-4.227-6.442-8.467-9.665-12.713
		c-0.75-0.988-1.731-1.899-2.155-3.017C369.337,957.979,373.047,953.02,383.704,953.319z M592.827,323.577
		c-1.102,2.71-2.826,5.67-2.528,8.323c0.42,3.751,4.959,1.823,7.296,3.455c2.676,1.871,3.518,5.974,1.518,8.885
		c-1.746,2.541-4.265,4.33-7.03,5.044c-6.417,1.656-12.974,2.763-19.486,4.043c-0.808,0.159-1.676,0.027-2.517,0.012
		c-3.418-0.063-5.245-2.211-6.603-5.01c-1.296-2.673-0.422-5.078,1.398-6.914c6.948-7.004,9.658-15.928,13.047-24.921
		c5.904-15.668,9.432-32.272,17.822-46.991c0.208-0.363,0.41-0.74,0.543-1.135c4.805-14.321,9.712-28.609,14.337-42.988
		c1.518-4.722,0.754-5.462-3.938-7.603c-5.903-2.693-11.583-3.975-18.137-1.377c-5.86,2.322-12.322,2.352-18.683,1.686
		c-2.918-0.306-5.9-0.027-8.808-0.379c-9.971-1.209-16.96,2.263-21.05,11.85c-1.863,4.366-5.291,4.94-10.685,3.3
		c-3.358-1.021-5.685-3.881-5.426-7.49c0.967-13.44,5.075-26.042,10.036-38.248c4.307-0.107,6.785,2.307,9.213,4.574
		c7.53,7.03,16.648,9.295,26.607,9.187c11.322-0.123,22.658-0.661,33.962-0.274c9.591,0.328,19.163,1.581,28.708,2.725
		c2.51,0.301,3.901,2.057,4.664,5.027c1.141,4.436,1.493,7.775-1.009,12.32c-3.789,6.879-5.578,14.846-8.36,22.298
		c-1.733,4.642-2.52,9.836-7.371,12.794c-0.852,0.519-1.558,2.245-1.412,3.284c1.35,9.601-4.764,16.924-8.51,24.483
		c-4.272,8.621-7.15,17.769-11.543,26.284C596.588,314.266,594.713,318.937,592.827,323.577z M668.102,541.731
		c-0.23-2.034-0.956-4.102-1.867-5.952c-3.132-6.351-6.636-12.522-9.627-18.935c-2.111-4.527-5.589-7.112-9.958-9.021
		c-11.389-4.981-27.079-1.377-35.822,10.78c-6.561,9.123-12.186,19.292-13.98,30.634c-2.085,13.171-5.061,26.305-3.024,39.918
		c0.809,5.408,1.596,10.46,3.836,15.626c2.776,6.402,6.832,12.476,7.248,19.868c0.108,1.921,1.353,4.028,2.636,5.591
		c6.786,8.266,14.862,14.693,25.576,17.218c5.206,1.227,10.029,0.48,14.427-2.468c4.928-3.305,9.301-7.245,11.881-12.721
		c8.117-17.228,14.275-34.921,12.083-55.639C673.387,565.516,669.461,553.752,668.102,541.731z M654.531,599.528
		c-1.121,9.652-4.065,18.84-11.095,26.024c-4.403,4.501-8.418,4.864-13.379,0.983c-7.725-6.041-13.02-13.625-15.863-23.358
		c-4.758-16.285-2.893-32.163,0.857-48.148c0.286-1.219,0.65-2.486,0.587-3.711c-0.587-11.416,7.515-18.086,13.996-25.6
		c1.037-1.201,2.73-1.935,4.243-2.604c2.533-1.12,5.307-0.966,6.686,1.509c4.058,7.289,8.685,14.377,10.794,22.563
		c2.938,11.396,4.068,23.033,3.178,34.806C654.578,587.843,655.201,593.761,654.531,599.528z M365.072,830.599
		c2.687-0.856,5.606-0.983,10.276-1.725c-4.372-6.634-4.75-12.914-4.485-19.208c0.356-8.486-0.702-16.772-3.172-24.835
		c-1.503-4.907-2.228-9.787-1.759-14.882c0.154-1.666,0.239-3.372,0.06-5.028c-0.84-7.786-4.236-10.968-12.057-11.095
		c-3.758-0.062-7.8-0.525-11.228,0.631c-7.306,2.463-14.158,0.315-21.082-0.945c-5.114-0.93-7.407-3.863-6.78-8.943
		c0.658-5.339,0.6-10.666,2.269-16.063c4.944-15.99,8.888-32.287,13.209-48.469c0.769-2.877,1.883-5.563,4.082-7.658
		c3.732-3.553,9.554-2.21,11.366,2.597c1.599,4.242,0.308,8.165-1.013,12.23c-3.868,11.916-7.59,23.88-11.197,35.878
		c-4.73,15.734-3.379,16.274,13.883,16.395c0.419,0.003,0.842-0.029,1.255-0.094c10.998-1.735,14.418-2.583,10.334-15.313
		c-1.571-4.897-2.001-9.915-1.49-14.935c0.679-6.667-0.855-13.323,0.38-20.022c0.415-2.251-0.786-4.906-1.599-7.255
		c-1.28-3.694-0.972-7.443-0.953-11.215c0.022-4.354,2.654-6.902,6.032-8.876c2.605-1.521,6.808,0.101,6.986,2.979
		c0.49,7.949,3.98,15.548,2.8,23.644c-0.562,3.857,0.658,7.489,0.866,11.227c0.558,10.015,3.374,19.769,2.733,29.968
		c-0.424,6.736,3.11,9.631,10.154,9.887c3.763,0.137,7.539-0.149,11.307-0.083c0.639,0.012,1.494,0.714,1.847,1.329
		c0.851,1.483-0.281,2.608-1.412,2.841c-5.833,1.203-11.061,3.375-15.468,7.581c-4.26,4.064-4.708,5.098-2.651,10.817
		c0.562,1.564,1.993,3.245,1.718,4.609c-1.867,9.276,2.441,18.012,1.874,27.326c-0.55,9.048,1.52,18.269,6.857,26.212
		c3.276,4.877,6.505,9.785,9.78,14.663c1.208,1.801,1.82,3.658,1.521,5.907c-0.373,2.797-2.432,4.639-5.149,3.75
		c-3.548-1.16-6.835-3.387-10.007,0.96c-1.269,1.737-3.84,1.6-5.89,0.923c-3.974-1.312-7.886-2.81-11.815-4.258
		c-2.056-0.758-3.478-2.241-4.624-4.072C361.287,835.518,362.261,831.495,365.072,830.599z M528.947,587.097
		c8.023-14.65,17.387-28.761,18.039-46.303c0.286-7.68-2.742-10.557-10.407-10.206c-4.496,0.206-7.995,2.036-11.305,4.808
		c-4.127,3.458-7.755,7.479-13.813,8.148c-3.414,0.377-4.886,4.228-6.846,6.961c-2.902,4.049-8.696,3.272-10.946-1.379
		c-0.749-1.548-0.882-3.467,0.285-4.786c1.928-2.18,4.119-4.149,6.342-6.038c1.575-1.338,4.17-2.019,4.955-3.646
		c3.173-6.575,9.539-9.302,14.986-13.014c5.827-3.971,12.881-5.829,19.564-7.066c6.255-1.158,12.315,2.452,16.564,7.437
		c2.969,3.484,5.391,7.52,7.56,11.575c1.997,3.735,2.882,7.988,1.911,12.206c-2.062,8.963-4.391,17.864-6.658,26.779
		c-0.201,0.792-0.619,1.608-1.151,2.228c-8.778,10.228-13.944,22.749-21.447,33.787c-2.846,4.187-5.62,8.349-9.813,11.365
		c-1.341,0.964-2.737,2.086-3.577,3.459c-1.477,2.416-4.23,5.041-2.316,7.934c1.491,2.253,4.661,0.919,7.125,0.945
		c3.776,0.04,7.68-0.361,11.293,0.461c4.747,1.079,9.004,1.234,13.229-1.504c2.166-1.405,4.76-1.33,7.318-1.354
		c8.767-0.081,17.586,0.474,26.149-2.282c2.724-0.877,4.876,0.701,6.514,2.756c1.779,2.234,1.44,4.612,0.23,7.048
		c-2.492,5.015-6.96,7.588-12.061,8.051c-14.202,1.29-27.973,5.662-42.436,5.264c-8.737-0.24-17.408,2.563-26.261,1.4
		c-0.418-0.033-0.835-0.076-1.254-0.097c-12.735-0.645-12.954-0.876-16.214-12.551c-0.733-2.626-0.581-4.896,0.887-7.171
		c1.82-2.823,3.144-6.076,5.38-8.5C511.284,612.416,517.791,597.973,528.947,587.097z M272.587,801.035
		c-2.667-8.183-1.335-16.721-2.591-25c-2.711-17.873-4.291-35.856-5.551-53.877c-0.105-1.498,0.317-3.736-1.997-3.883
		c-0.941-0.06-2.398,0.996-2.888,1.929c-5.1,9.702-15.366,13.855-22.654,21.187c-0.377,0.379-1.856,0.273-2.297-0.153
		c-0.832-0.803-1.832-2.027-1.79-3.034c0.132-3.14,2.089-5.591,4.484-7.273c4.358-3.061,7.561-6.261,6.781-12.318
		c-0.287-2.222,1.026-5.026,2.398-7.02c5.997-8.714,9.571-18.499,13.191-28.292c1.049-2.839,2.7-6.087,5.939-5.614
		c4.345,0.635,9.744,0.591,11.891,5.604c1.958,4.572,4.05,9.517,2.716,14.569c-1.132,4.288-0.798,8.259,0.098,12.404
		c0.441,2.039,1.265,4.394,0.667,6.189c-2.258,6.78-0.308,13.404,0.573,19.931c0.888,6.59-0.36,13.327,1.936,19.839
		c0.934,2.648,0.301,5.83,0.487,8.762c0.664,10.415,1.137,20.85,2.134,31.234c0.938,9.772,4.923,12.822,15.014,12.422
		c1.672-0.066,3.362-0.326,5.013-0.173c1.777,0.165,3.117,1.251,3.537,3.061c0.401,1.728-0.053,3.294-1.452,4.493
		c-0.316,0.27-0.638,0.568-1.011,0.732c-7.784,3.41-16.095,4.483-23.621,5.771c-10.928-3.183-20.457,0.189-30.11,2.424
		c-2.058,0.476-4.163,0.393-5.731-1.507c-1.474-1.788-1.713-3.663-0.905-5.837c3.858-10.372,5.302-11.499,16.349-12.187
		c2.084-0.13,4.197,0.15,6.277-0.01C272.116,805.202,273.286,803.183,272.587,801.035z M340.752,310.823
		c1.307-0.009,4.327,0.446,7.114-0.165c4.042-0.885,8.875-0.247,11.916-3.372c3.481-3.579,7.153-5.389,12.095-5.049
		c1.142,0.079,2.519-0.541,3.499-1.243c8.173-5.865,17.078-11.562,21.783-20.431c4.517-8.513,10.436-15.982,15.411-24.1
		c5.527-9.022,6.822-18.638,7.776-28.56c0.361-3.75-2.103-6.418-5.414-7.665c-2.271-0.857-4.917-1.038-7.386-0.994
		c-9.958,0.175-18.849,4.087-27.134,9.048c-8.229,4.927-15.83,10.894-23.915,16.08c-2.929,1.879-5.57,4.16-7.145,6.912
		c-3.789,6.617-11.324,9.92-14.428,17.047c-0.417,0.959-1.79,1.738-2.888,2.13c-8.035,2.864-11.653,10.098-13.807,16.943
		c-5.087,16.168,1.422,22.326,17.227,24.36C336.642,311.916,337.919,311.352,340.752,310.823z M325.872,288.924
		c-0.118-1.561-1.223-3.161,0.132-4.711c2.99,0.449,6.526,2.876,8.082-2.165c1.496-4.847,5.073-7.439,9.657-9.072
		c1.543-0.55,3.505-1.298,4.224-2.557c4.081-7.148,11.525-10.287,17.307-15.377c9.655-8.497,20.608-14.037,32.585-18.006
		c1.163-0.386,2.437-0.473,3.668-0.611c1.598-0.179,3.429,1.794,2.81,3.233c-2.645,6.142-4.616,12.788-8.353,18.201
		c-5.913,8.564-12.225,16.974-20.183,23.918c-10.392,9.067-22.405,14.398-36.088,15.98c-1.662,0.192-3.346,0.363-5.013,0.313
		C328.397,297.882,326.389,295.78,325.872,288.924z M822.034,787.609c-0.194,3.348-0.871,6.665-1.167,10.01
		c-0.288,3.253,0.565,3.994,4.371,4.219c5.088,0.302,7.273,1.994,7.574,5.866c0.365,4.695-2.056,8.111-6.55,9.059
		c-11.621,2.45-23.158,2.991-34.743-0.618c-2.936-0.914-4.334-2.354-4.605-5.039c-0.273-2.708,2.422-5.715,5.343-5.98
		c1.629-0.148,3.306,0.394,4.965,0.422c5.732,0.096,9.743-2.392,9.47-7.556c-0.575-10.912,3.403-20.56,6.688-30.478
		c0.389-1.175,0.98-2.518,0.747-3.629c-2.784-13.19,2.386-25.517,4.014-38.219c0.317-2.475,0.852-4.923,1.107-7.402
		c0.126-1.225-0.195-2.588-1.793-2.641c-0.731-0.025-1.756,0.351-2.177,0.903c-1.52,1.995-2.817,4.159-4.242,6.229
		c-1.506,2.188-3.807,3.346-6.189,4.123c-2.1,0.685-4.133-0.087-5.842-1.497c-1.947-1.606-1.987-3.777-0.965-5.681
		c4.352-8.109,8.777-16.184,13.417-24.13c1.685-2.888,3.893-5.41,4.426-8.906c0.539-3.531,2.883-4.656,6.344-4.55
		c3.039,0.094,4.659-1.936,4.446-4.856c-0.384-5.265,2.844-7.5,7.038-9.048c4.622-1.707,8.288,0.428,9.139,5.524
		c0.482,2.887,0.488,5.854,0.836,10.498c-1.762,8.119-0.925,18.44-5.998,27.544c-1.693,3.038-2.117,6.34-2.721,9.63
		c-1.507,8.203-2.942,16.42-4.484,24.616c-0.387,2.057-0.81,4.179-1.671,6.063C823.653,763.389,822.739,775.464,822.034,787.609z
		 M891.737,770.322c3.677-4.497,4.567-9.901,3.672-16.432c-1.232-8.974-0.932-18.608,1.045-27.437
		c1.714-7.656,1.046-14.961,1.081-22.438c0.014-3.121-1.399-4.8-4.701-3.473c-5.532,2.223-7.416-4.97-12.779-4.506
		c5.081-5.334,7.59-10.407,9.689-16.003c3.189-8.504,11.147-13.25,17.039-19.619c1.272-1.375,5.924,0.093,6.528,2.123
		c1.655,5.568,4.158,10.998,3.368,17.071c-0.703,5.406-0.933,10.904-2.056,16.217c-3.13,14.803-4.492,29.771-5.454,44.839
		c-0.556,8.707-1.674,17.452-4.86,25.731c-0.151,0.393-0.308,0.783-0.436,1.182c-4.659,14.65-2.712,18.254,11.835,22.553
		c2.368,0.699,4.012-0.551,5.952-1.136c1.655-0.5,3.336-0.635,4.645,0.745c1.654,1.742,1.571,3.902,0.658,5.846
		c-1.608,3.426-3.428,6.347-7.865,7.289c-6.142,1.305-12.06,3.477-18.527,2.683c-4.65-0.571-9.178,0.497-13.689,1.602
		c-2.867,0.703-5.771,0.862-8.652-0.309c-4.608-1.873-6.364-6.098-3.277-10.072C881.395,788.483,885.047,778.505,891.737,770.322z
		 M691.763,1010.375c0.896,1.841,2.235,3.464,3.372,5.188c1.031,1.561,1.021,3.103-0.151,4.588c-1.202,1.524-2.936,1.53-4.594,1.375
		c-5.177-0.484-8.051-4.378-10.712-8.047c-3.68-5.073-6.718-10.604-10.16-15.854c-2.499-3.814-2.297-7.979-1.781-12.14
		c0.234-1.885,1.832-2.591,3.738-2.327c4.314,0.599,8.117,1.912,10.08,6.346c1,2.258,1.784,4.724,4.55,6.58
		c10.698-9.971,22.323-17.098,35.116-22.601c6.506-2.799,12.597-6.619,18.699-10.275c3.602-2.158,3.496-3.521,0.388-7.876
		c-2.887-4.047-2.466-5.883,1.553-7.597c7.679-3.273,15.835-2.682,23.498-1.266c3.898,0.72,7.09,0.382,10.761,0.018
		c5.399-0.535,10.498-3.119,16.106-2.129c5.529,0.976,8.387,4.655,7.124,9.686c-0.42,1.674-1.557,3.757-3.175,3.422
		c-8.352-1.727-14.864,2.958-20.839,6.926c-8.402,5.579-17.641,9.407-26.2,14.578c-9.291,5.612-18.033,12.515-28.449,15.828
		c-9.127,2.902-16.346,10.151-26.325,10.883C692.217,1005.835,690.842,1008.482,691.763,1010.375z M850.167,309.218
		c5.615-6.835,5.65-6.868,0.367-13.606c-1.273-1.623-2.883-2.985-4.349-4.456c-5.31-5.332-10.922-10.374-15.146-16.71
		c-6.8-10.196-17.721-16.61-24.657-26.696c-7.517-3.414-12.096-10.038-17.44-15.846c-0.406-0.441-1.714-0.504-2.313-0.189
		c-0.598,0.313-1.13,1.303-1.172,2.028c-0.171,2.907-0.016,5.836-0.226,8.739c-0.163,2.25-2.725,3.898-4.53,3.041
		c-5.129-2.433-9.535-5.484-9.511-13.097c2.363-4.368,0.295-9.612-0.861-14.862c-0.665-3.023,0.034-5.838,0.68-8.698
		c0.616-2.734,2.4-4.414,5.104-4.884c2.178-0.379,4.424,0.146,5.462,2.189c2.02,3.975,5.758,5.608,9.039,8.148
		c8.58,6.642,17.211,13.447,23.713,22.391c2.215,3.046,4.213,6.326,7.832,8.02c3.989,1.867,6.884,4.666,8.143,9.06
		c0.313,1.094,1.209,2.416,2.189,2.863c8.186,3.733,12.629,10.989,16.819,18.233c4.931,8.523,13.811,8.437,21.575,10.83
		c0.833,0.257,2.372-0.746,3.153-1.571c1.583-1.671,3.305-2.699,5.526-1.848c2.329,0.892,4.588,4.884,3.711,7.391
		c-1.33,3.808-1.624,8.053-5.501,10.872c-4.376,3.182-8.262,6.994-11.775,11.245c-3.814,4.617-9.552,6.72-14.846,9.222
		c-1.507,0.712-3.234,0.111-4.518-1.288c-1.663-1.812-1.827-3.755-0.477-5.684C847.354,312.343,848.836,310.836,850.167,309.218z
		 M567.917,894.222c-2.483-4.359-0.757-11.336,3.03-14.949c0.556-0.53,1.466-0.689,2.885-1.319
		c3.666,2.382,9.322,2.337,11.474,7.932c1.495,3.886,3.302,7.667,4.554,11.627c1.53,4.835,2.857,9.458,7.995,12.067
		c2.887,1.466,3.061,4.763,2.492,7.807c-0.668,3.575-3.669,4.065-6.486,4.949c-4.592,1.443-8.414,0.347-10.958-3.619
		C577.735,910.663,572.652,902.537,567.917,894.222z M1065.139,864.832c0.352,1.188,0.551,2.42,0.796,3.526
		c-0.266,4.177-2.02,7.352-5.761,9.01c-1.976,0.875-4.127,0.397-5.803-1.098c-2.392-2.136-2.641-6.747-0.404-10.399
		c0.84-1.371,2.147-2.519,3.418-3.551C1060.448,859.832,1064.007,861.014,1065.139,864.832z M1061.81,457.73
		c1.823,0.849,3.926,1.618,3.66,4.298c-0.732,0.415-1.396,1.064-2.129,1.154c-1.828,0.225-3.161-0.821-4.083-2.281
		c-0.41-0.65-0.862-1.687-0.617-2.257C1059.223,457.292,1060.632,457.181,1061.81,457.73z M140.062,746.408l0.755,0.55l-0.918,0.279
		L140.062,746.408z" style="fill: #F5F5F5;"></path>
</g>
</svg>